<svg xmlns="http://www.w3.org/2000/svg" xmlns:xlink="http://www.w3.org/1999/xlink" width="1746" height="1146" viewBox="0 0 1746 1146"><defs><clipPath id="b"><rect width="1746" height="1146"/></clipPath></defs><g id="a" clip-path="url(#b)"><rect width="1746" height="1146" fill="#fff"/><g transform="translate(313.5 256)"><g transform="translate(0 50.855) rotate(-45)" fill="#fff" stroke="#000" stroke-miterlimit="10" stroke-width="2"><rect width="71.92" height="71.92" rx="5" stroke="none"/><rect x="1" y="1" width="69.92" height="69.92" rx="4" fill="none"/></g><text transform="translate(8 41)" font-size="12" font-family="SegoeUI, Segoe UI"><tspan x="19.577" y="13">runApp()</tspan></text></g><g transform="translate(372.5 358) rotate(90)"><path d="M0,1H52" transform="translate(0 7)" fill="none" stroke="#004ab7" stroke-miterlimit="10" stroke-width="2"/><path d="M0,16V0L10,8Z" transform="translate(44)" fill="#004ab7"/></g><g transform="translate(446.44 465.106) rotate(90)"><path d="M0,22.169V5.714C0,2.558,13.431,0,30,0H150" transform="translate(0 10)" fill="none" stroke="#004ab7" stroke-miterlimit="10" stroke-width="2"/><path d="M0,16V0L10,8Z" transform="translate(142)" fill="#004ab7"/></g><g transform="translate(313.609 465.106) rotate(90)"><path d="M0,0V16.454c0,3.156,13.431,5.714,30,5.714H150" fill="none" stroke="#004ab7" stroke-miterlimit="10" stroke-width="2"/><path d="M0,0V16L10,8Z" transform="translate(142 14.169)" fill="#004ab7"/></g><g transform="translate(313.44 414.106)"><g transform="translate(0 50.855) rotate(-45)" fill="#fff" stroke="#000" stroke-miterlimit="10" stroke-width="2"><rect width="71.92" height="71.92" rx="5" stroke="none"/><rect x="1" y="1" width="69.92" height="69.92" rx="4" fill="none"/></g><text transform="translate(8.06 40.894)" font-size="12" font-family="SegoeUI, Segoe UI"><tspan x="6.856" y="13">initializeApp()</tspan></text></g><g transform="translate(270.44 525.106)"><g fill="#fff" stroke="#fbbebb" stroke-miterlimit="10" stroke-width="2"><circle cx="20" cy="20" r="20" stroke="none"/><circle cx="20" cy="20" r="19" fill="none"/></g><g transform="translate(14 15)"><path d="M10.869,11.154,0,0" transform="translate(0.878 0.059)" fill="none" stroke="#fbbebb" stroke-linecap="square" stroke-miterlimit="10" stroke-width="2"/><path d="M10.869,0,0,11.154" transform="translate(0.77 0.105)" fill="none" stroke="#fbbebb" stroke-linecap="square" stroke-miterlimit="10" stroke-width="2"/></g></g><g transform="translate(415.44 525.106)"><g fill="#fff" stroke="#bfe3e1" stroke-miterlimit="10" stroke-width="2"><circle cx="20" cy="20" r="20" stroke="none"/><circle cx="20" cy="20" r="19" fill="none"/></g><path d="M5.4,9.836,1.372,5.959,0,7.27l5.4,5.2L17,1.311,15.637,0Z" transform="translate(12 14)" fill="#bfe3e1"/></g><g transform="translate(387.44 621.106)"><g transform="translate(0 50.855) rotate(-45)" fill="#fff" stroke="#004ab7" stroke-miterlimit="10" stroke-width="2"><rect width="71.92" height="71.92" rx="5" stroke="none"/><rect x="1" y="1" width="69.92" height="69.92" rx="4" fill="none"/></g><text transform="translate(8.06 40.894)" fill="#004ab7" font-size="12" font-family="SegoeUI, Segoe UI"><tspan x="8.122" y="13">SplashScreen</tspan></text></g><g transform="translate(239.44 621.106)"><g transform="translate(0 50.855) rotate(-45)" fill="#fff" stroke="#004ab7" stroke-miterlimit="10" stroke-width="2"><rect width="71.92" height="71.92" rx="5" stroke="none"/><rect x="1" y="1" width="69.92" height="69.92" rx="4" fill="none"/></g><text transform="translate(8.06 40.894)" fill="#004ab7" font-size="12" font-family="SegoeUI, Segoe UI"><tspan x="9.253" y="13">Error Widget</tspan></text></g><g transform="translate(446.5 726) rotate(90)"><path d="M0,1H52" transform="translate(0 7)" fill="none" stroke="#004ab7" stroke-miterlimit="10" stroke-width="2"/><path d="M0,16V0L10,8Z" transform="translate(44)" fill="#004ab7"/></g><g transform="translate(387.44 789.106)"><g transform="translate(0 50.855) rotate(-45)" fill="#fff" stroke="#004ab7" stroke-miterlimit="10" stroke-width="2"><rect width="71.92" height="71.92" rx="5" stroke="none"/><rect x="1" y="1" width="69.92" height="69.92" rx="4" fill="none"/></g><text transform="translate(8.06 39.894)" fill="#004ab7" font-size="12" font-family="SegoeUI, Segoe UI"><tspan x="21.813" y="13">Landing</tspan></text></g><g transform="translate(541.44 789.106)"><g transform="translate(0 50.855) rotate(-45)" fill="#fff" stroke="#000" stroke-miterlimit="10" stroke-width="2"><rect width="71.92" height="71.92" rx="5" stroke="none"/><rect x="1" y="1" width="69.92" height="69.92" rx="4" fill="none"/></g><text transform="translate(8.06 41.894)" font-size="12" font-family="SegoeUI, Segoe UI"><tspan x="6.9" y="13">checkAdmin()</tspan></text></g><g transform="translate(497.5 832)"><path d="M0,1H37" transform="translate(0 7)" fill="none" stroke="#004ab7" stroke-miterlimit="10" stroke-width="2"/><path d="M0,16V0L10,8Z" transform="translate(29)" fill="#004ab7"/></g><g transform="translate(592.609 901.106)"><path d="M0,0V16.454c0,3.156,13.431,5.714,30,5.714H150" transform="translate(0 -8)" fill="none" stroke="#004ab7" stroke-miterlimit="10" stroke-width="2"/><path d="M0,0V16L10,8Z" transform="translate(142 6.169)" fill="#004ab7"/></g><g transform="translate(592.356 758.021)"><path d="M0,22.169V5.714C0,2.558,13.431,0,30,0H150" transform="translate(0 8)" fill="none" stroke="#004ab7" stroke-miterlimit="10" stroke-width="2"/><path d="M0,16V0L10,8Z" transform="translate(142)" fill="#004ab7"/></g><g transform="translate(647.44 746.106)"><g fill="#fff" stroke="#bfe3e1" stroke-miterlimit="10" stroke-width="2"><circle cx="20" cy="20" r="20" stroke="none"/><circle cx="20" cy="20" r="19" fill="none"/></g><path d="M5.4,9.836,1.372,5.959,0,7.27l5.4,5.2L17,1.311,15.637,0Z" transform="translate(12 14)" fill="#bfe3e1"/></g><g transform="translate(648.44 895.106)"><g fill="#fff" stroke="#fbbebb" stroke-miterlimit="10" stroke-width="2"><circle cx="20" cy="20" r="20" stroke="none"/><circle cx="20" cy="20" r="19" fill="none"/></g><g transform="translate(14 15)"><path d="M10.869,11.154,0,0" transform="translate(0.878 0.059)" fill="none" stroke="#fbbebb" stroke-linecap="square" stroke-miterlimit="10" stroke-width="2"/><path d="M10.869,0,0,11.154" transform="translate(0.77 0.105)" fill="none" stroke="#fbbebb" stroke-linecap="square" stroke-miterlimit="10" stroke-width="2"/></g></g><g transform="translate(751.44 864.106)"><g transform="translate(0 50.855) rotate(-45)" fill="#fff" stroke="#004ab7" stroke-miterlimit="10" stroke-width="2"><rect width="71.92" height="71.92" rx="5" stroke="none"/><rect x="1" y="1" width="69.92" height="69.92" rx="4" fill="none"/></g><text transform="translate(8.06 40.894)" fill="#004ab7" font-size="12" font-family="SegoeUI, Segoe UI"><tspan x="26.438" y="13">SignIn</tspan></text></g><g transform="translate(751.44 715.106)"><g transform="translate(0 50.855) rotate(-45)" fill="#fff" stroke="#004ab7" stroke-miterlimit="10" stroke-width="2"><rect width="71.92" height="71.92" rx="5" stroke="none"/><rect x="1" y="1" width="69.92" height="69.92" rx="4" fill="none"/></g><text transform="translate(8.06 40.894)" fill="#004ab7" font-size="12" font-family="SegoeUI, Segoe UI"><tspan x="26.919" y="13">Home</tspan></text></g><g transform="translate(794 859.5) rotate(-90)"><path d="M0,1H37" transform="translate(0 7)" fill="none" stroke="#004ab7" stroke-miterlimit="10" stroke-width="2"/><path d="M0,16V0L10,8Z" transform="translate(29)" fill="#004ab7"/></g><g transform="translate(858.232 465)"><path d="M0,294.033H78.6c7.549,0,13.669-17.552,13.669-39.2V39.2c0-21.652,6.12-39.2,13.669-39.2H180.8" transform="translate(0 6.967)" fill="none" stroke="#004ab7" stroke-miterlimit="10" stroke-width="2"/><path d="M0,16V0L12,8Z" transform="translate(176.268)" fill="#004ab7"/></g><g transform="translate(890.5 758)"><path d="M0,1H152" transform="translate(0 7)" fill="none" stroke="#004ab7" stroke-miterlimit="10" stroke-width="2"/><path d="M0,16V0L10,8Z" transform="translate(144)" fill="#004ab7"/></g><g transform="translate(950.5 231)"><path d="M0,355.809V91.714C0,41.062,8.6,0,19.2,0H96" transform="translate(0 0)" fill="none" stroke="#004ab7" stroke-miterlimit="10" stroke-width="2"/><path d="M0,16V0L10,8Z" transform="translate(88 -8)" fill="#004ab7"/></g><g transform="translate(1053.44 180.106)"><g transform="translate(0 50.855) rotate(-45)" fill="#fff" stroke="#004ab7" stroke-miterlimit="10" stroke-width="2"><rect width="71.92" height="71.92" rx="5" stroke="none"/><rect x="1" y="1" width="69.92" height="69.92" rx="4" fill="none"/></g><text transform="translate(8.06 40.894)" fill="#004ab7" font-size="12" font-family="SegoeUI, Segoe UI"><tspan x="14.04" y="13">HomePage</tspan></text></g><g transform="translate(1051.44 715.106)"><g transform="translate(0 50.855) rotate(-45)" fill="#fff" stroke="#004ab7" stroke-miterlimit="10" stroke-width="2"><rect width="71.92" height="71.92" rx="5" stroke="none"/><rect x="1" y="1" width="69.92" height="69.92" rx="4" fill="none"/></g><text transform="translate(8.06 40.894)" fill="#004ab7" font-size="12" font-family="SegoeUI, Segoe UI"><tspan x="25.088" y="13">Orders</tspan></text></g><g transform="translate(795 712.5) rotate(-90)"><path d="M0,1H115" transform="translate(0 7)" fill="none" stroke="#004ab7" stroke-miterlimit="10" stroke-width="2"/><path d="M0,16V0L10,8Z" transform="translate(107)" fill="#004ab7"/></g><g transform="translate(751.44 490.106)"><g transform="translate(0 50.855) rotate(-45)" fill="#fff" stroke="#004ab7" stroke-miterlimit="10" stroke-width="2"><rect width="71.92" height="71.92" rx="5" stroke="none"/><rect x="1" y="1" width="69.92" height="69.92" rx="4" fill="none"/></g><text transform="translate(8.06 40.894)" fill="#004ab7" font-size="12" font-family="SegoeUI, Segoe UI"><tspan x="21.681" y="13">Settings</tspan></text></g><g transform="translate(1198.44 180.106)"><g transform="translate(0 50.855) rotate(-45)" fill="#fff" stroke="#004ab7" stroke-miterlimit="10" stroke-width="2"><rect width="71.92" height="71.92" rx="5" stroke="none"/><rect x="1" y="1" width="69.92" height="69.92" rx="4" fill="none"/></g><text transform="translate(8.06 35.894)" fill="#004ab7" font-size="12" font-family="SegoeUI, Segoe UI"><tspan x="19.671" y="13">Add/Edit</tspan><tspan x="22.305" y="27">Product</tspan></text></g><g transform="translate(1157.5 223)"><path d="M0,1H37" transform="translate(0 7)" fill="none" stroke="#000" stroke-miterlimit="10" stroke-width="2"/><path d="M0,16V0L10,8Z" transform="translate(29)"/></g><g transform="translate(1102.356 645.021)"><path d="M0,61.713V15.907C0,7.122,13.431,0,30,0H150" transform="translate(0 8.455)" fill="none" stroke="#004ab7" stroke-miterlimit="10" stroke-width="2"/><path d="M0,16V0L10,8Z" transform="translate(142)" fill="#004ab7"/></g><g transform="translate(1259.44 602.106)"><g transform="translate(0 50.855) rotate(-45)" fill="#fff" stroke="#004ab7" stroke-miterlimit="10" stroke-width="2"><rect width="71.92" height="71.92" rx="5" stroke="none"/><rect x="1" y="1" width="69.92" height="69.92" rx="4" fill="none"/></g><text transform="translate(7.06 40.894)" fill="#004ab7" font-size="12" font-family="SegoeUI, Segoe UI"><tspan x="17.98" y="13">Delivered</tspan></text></g><g transform="translate(1157.5 758)"><path d="M0,1H95" transform="translate(0 7)" fill="#004ab7" stroke="#004ab7" stroke-miterlimit="10" stroke-width="2"/><path d="M0,16V0L10,8Z" transform="translate(87)" fill="#004ab7"/></g><g transform="translate(1261.44 715.106)"><g transform="translate(0 50.855) rotate(-45)" fill="#fff" stroke="#004ab7" stroke-miterlimit="10" stroke-width="2"><rect width="71.92" height="71.92" rx="5" stroke="none"/><rect x="1" y="1" width="69.92" height="69.92" rx="4" fill="none"/></g><text transform="translate(8.06 40.894)" fill="#004ab7" font-size="12" font-family="SegoeUI, Segoe UI"><tspan x="14.655" y="13">Processing</tspan></text></g><g transform="translate(1363.5 758)"><path d="M0,1H34" transform="translate(0 7)" fill="none" stroke="#000" stroke-miterlimit="10" stroke-width="2"/><path d="M0,16V0L10,8Z" transform="translate(26)"/></g><g transform="translate(1404.44 715.106)"><g transform="translate(0 50.855) rotate(-45)" fill="#fff" stroke="#004ab7" stroke-miterlimit="10" stroke-width="2"><rect width="71.92" height="71.92" rx="5" stroke="none"/><rect x="1" y="1" width="69.92" height="69.92" rx="4" fill="none"/></g><text transform="translate(8.06 35.894)" fill="#004ab7" font-size="12" font-family="SegoeUI, Segoe UI"><tspan x="27.634" y="13">Order</tspan><tspan x="25.117" y="27">Details</tspan></text></g><g transform="translate(1102.609 818.906)"><path d="M0,0V39.564C0,47.152,13.431,53.3,30,53.3H150" fill="none" stroke="#004ab7" stroke-miterlimit="10" stroke-width="2"/><path d="M0,0V16L10,8Z" transform="translate(142 45.369)" fill="#004ab7"/></g><g transform="translate(1261.44 822.106)"><g transform="translate(0 50.855) rotate(-45)" fill="#fff" stroke="#004ab7" stroke-miterlimit="10" stroke-width="2"><rect width="71.92" height="71.92" rx="5" stroke="none"/><rect x="1" y="1" width="69.92" height="69.92" rx="4" fill="none"/></g><text transform="translate(8.06 40.894)" fill="#004ab7" font-size="12" font-family="SegoeUI, Segoe UI"><tspan x="19.911" y="13">Declined</tspan></text></g><g transform="translate(1363.5 865)"><path d="M0,1H34" transform="translate(0 7)" stroke="#000" stroke-miterlimit="10" stroke-width="2"/><path d="M0,16V0L10,8Z" transform="translate(26)"/></g><g transform="translate(1404.44 822.106)"><g transform="translate(0 50.855) rotate(-45)" fill="#fff" stroke="#004ab7" stroke-miterlimit="10" stroke-width="2"><rect width="71.92" height="71.92" rx="5" stroke="none"/><rect x="1" y="1" width="69.92" height="69.92" rx="4" fill="none"/></g><text transform="translate(8.06 33.894)" fill="#004ab7" font-size="12" font-family="SegoeUI, Segoe UI"><tspan x="27.634" y="13">Order</tspan><tspan x="25.117" y="27">Details</tspan></text></g><g transform="translate(1053.44 422.106)"><g transform="translate(0 50.855) rotate(-45)" fill="#fff" stroke="#004ab7" stroke-miterlimit="10" stroke-width="2"><rect width="71.92" height="71.92" rx="5" stroke="none"/><rect x="1" y="1" width="69.92" height="69.92" rx="4" fill="none"/></g><text transform="translate(8.06 40.894)" fill="#004ab7" font-size="12" font-family="SegoeUI, Segoe UI"><tspan x="19.527" y="13">Shipping</tspan></text></g><g transform="translate(1208.44 422.106)"><g transform="translate(0 50.855) rotate(-45)" fill="#fff" stroke="#004ab7" stroke-miterlimit="10" stroke-width="2"><rect width="71.92" height="71.92" rx="5" stroke="none"/><rect x="1" y="1" width="69.92" height="69.92" rx="4" fill="none"/></g><text transform="translate(8.06 35.894)" fill="#004ab7" font-size="12" font-family="SegoeUI, Segoe UI"><tspan x="19.671" y="13">Add/Edit</tspan><tspan x="19.527" y="27">Shipping</tspan></text></g><g transform="translate(1162.5 465)"><path d="M0,1H37" transform="translate(0 7)" fill="none" stroke="#000" stroke-miterlimit="10" stroke-width="2"/><path d="M0,16V0L10,8Z" transform="translate(29)"/></g><g transform="translate(1363.5 645)"><path d="M0,1H34" transform="translate(0 7)" fill="none" stroke="#000" stroke-miterlimit="10" stroke-width="2"/><path d="M0,16V0L10,8Z" transform="translate(26)"/></g><g transform="translate(1404.44 602.106)"><g transform="translate(0 50.855) rotate(-45)" fill="#fff" stroke="#004ab7" stroke-miterlimit="10" stroke-width="2"><rect width="71.92" height="71.92" rx="5" stroke="none"/><rect x="1" y="1" width="69.92" height="69.92" rx="4" fill="none"/></g><text transform="translate(8.06 35.894)" fill="#004ab7" font-size="12" font-family="SegoeUI, Segoe UI"><tspan x="27.634" y="13">Order</tspan><tspan x="25.117" y="27">Details</tspan></text></g><g transform="translate(185 20)" stroke="#707070" stroke-width="1"><circle cx="10" cy="10" r="10" stroke="none"/><circle cx="10" cy="10" r="9.5" fill="none"/></g><text transform="translate(294 34)" font-size="12" font-family="Arial-BoldMT, Arial" font-weight="700"><tspan x="-83.344" y="0">Navigator, showBottomSheet</tspan></text><circle cx="10" cy="10" r="10" transform="translate(185 49)" fill="#004ab7"/><text transform="translate(226 63)" fill="#004ab7" font-size="12" font-family="Arial-BoldMT, Arial" font-weight="700"><tspan x="-14.997" y="0">Child</tspan></text><g transform="translate(185.441 78)"><g transform="translate(0 10) rotate(-45)" fill="#fff" stroke="#004ab7" stroke-miterlimit="10" stroke-width="2"><rect width="14.926" height="14.926" rx="5" stroke="none"/><rect x="1" y="1" width="12.926" height="12.926" rx="4" fill="none"/></g></g><text transform="translate(231 92)" fill="#004ab7" font-size="12" font-family="Arial-BoldMT, Arial" font-weight="700"><tspan x="-19.942" y="0">Widget</tspan></text><g transform="translate(184.441 107)"><g transform="translate(0 10) rotate(-45)" fill="#fff" stroke="#000" stroke-miterlimit="10" stroke-width="2"><rect width="14.926" height="14.926" rx="5" stroke="none"/><rect x="1" y="1" width="12.926" height="12.926" rx="4" fill="none"/></g></g><text transform="translate(236 121)" font-size="12" font-family="Arial-BoldMT, Arial" font-weight="700"><tspan x="-25.327" y="0">Function</tspan></text></g></svg>