<svg xmlns="http://www.w3.org/2000/svg" xmlns:xlink="http://www.w3.org/1999/xlink" width="1907" height="1146" viewBox="0 0 1907 1146"><defs><clipPath id="b"><rect width="1907" height="1146"/></clipPath></defs><g id="a" clip-path="url(#b)"><rect width="1907" height="1146" fill="#fff"/><g transform="translate(135.5 148)"><g transform="translate(0 50.855) rotate(-45)" fill="#fff" stroke="#000" stroke-miterlimit="10" stroke-width="2"><rect width="71.92" height="71.92" rx="5" stroke="none"/><rect x="1" y="1" width="69.92" height="69.92" rx="4" fill="none"/></g><text transform="translate(8 41)" font-size="12" font-family="SegoeUI, Segoe UI"><tspan x="19.577" y="13">runApp()</tspan></text></g><g transform="translate(194.5 250) rotate(90)"><path d="M0,1H52" transform="translate(0 7)" fill="none" stroke="#004ab7" stroke-miterlimit="10" stroke-width="2"/><path d="M0,16V0L10,8Z" transform="translate(44)" fill="#004ab7"/></g><g transform="translate(268.44 357.106) rotate(90)"><path d="M0,22.169V5.714C0,2.558,13.431,0,30,0H150" transform="translate(0 10)" fill="none" stroke="#004ab7" stroke-miterlimit="10" stroke-width="2"/><path d="M0,16V0L10,8Z" transform="translate(142)" fill="#004ab7"/></g><g transform="translate(135.609 357.106) rotate(90)"><path d="M0,0V16.454c0,3.156,13.431,5.714,30,5.714H150" fill="none" stroke="#004ab7" stroke-miterlimit="10" stroke-width="2"/><path d="M0,0V16L10,8Z" transform="translate(142 14.169)" fill="#004ab7"/></g><g transform="translate(135.44 306.106)"><g transform="translate(0 50.855) rotate(-45)" fill="#fff" stroke="#000" stroke-miterlimit="10" stroke-width="2"><rect width="71.92" height="71.92" rx="5" stroke="none"/><rect x="1" y="1" width="69.92" height="69.92" rx="4" fill="none"/></g><text transform="translate(8.06 40.894)" font-size="12" font-family="SegoeUI, Segoe UI"><tspan x="6.856" y="13">initializeApp()</tspan></text></g><g transform="translate(92.44 417.106)"><g fill="#fff" stroke="#fbbebb" stroke-miterlimit="10" stroke-width="2"><circle cx="20" cy="20" r="20" stroke="none"/><circle cx="20" cy="20" r="19" fill="none"/></g><g transform="translate(14 15)"><path d="M10.869,11.154,0,0" transform="translate(0.878 0.059)" fill="none" stroke="#fbbebb" stroke-linecap="square" stroke-miterlimit="10" stroke-width="2"/><path d="M10.869,0,0,11.154" transform="translate(0.77 0.105)" fill="none" stroke="#fbbebb" stroke-linecap="square" stroke-miterlimit="10" stroke-width="2"/></g></g><g transform="translate(237.44 417.106)"><g fill="#fff" stroke="#bfe3e1" stroke-miterlimit="10" stroke-width="2"><circle cx="20" cy="20" r="20" stroke="none"/><circle cx="20" cy="20" r="19" fill="none"/></g><path d="M5.4,9.836,1.372,5.959,0,7.27l5.4,5.2L17,1.311,15.637,0Z" transform="translate(12 14)" fill="#bfe3e1"/></g><g transform="translate(209.44 513.106)"><g transform="translate(0 50.855) rotate(-45)" fill="#fff" stroke="#004ab7" stroke-miterlimit="10" stroke-width="2"><rect width="71.92" height="71.92" rx="5" stroke="none"/><rect x="1" y="1" width="69.92" height="69.92" rx="4" fill="none"/></g><text transform="translate(8.06 40.894)" fill="#004ab7" font-size="12" font-family="SegoeUI, Segoe UI"><tspan x="8.122" y="13">SplashScreen</tspan></text></g><g transform="translate(61.44 513.106)"><g transform="translate(0 50.855) rotate(-45)" fill="#fff" stroke="#004ab7" stroke-miterlimit="10" stroke-width="2"><rect width="71.92" height="71.92" rx="5" stroke="none"/><rect x="1" y="1" width="69.92" height="69.92" rx="4" fill="none"/></g><text transform="translate(8.06 40.894)" fill="#004ab7" font-size="12" font-family="SegoeUI, Segoe UI"><tspan x="9.253" y="13">Error Widget</tspan></text></g><g transform="translate(268.5 618) rotate(90)"><path d="M0,1H52" transform="translate(0 7)" fill="none" stroke="#004ab7" stroke-miterlimit="10" stroke-width="2"/><path d="M0,16V0L10,8Z" transform="translate(44)" fill="#004ab7"/></g><g transform="translate(209.44 680.106)"><g transform="translate(0 50.855) rotate(-45)" fill="#fff" stroke="#004ab7" stroke-miterlimit="10" stroke-width="2"><rect width="71.92" height="71.92" rx="5" stroke="none"/><rect x="1" y="1" width="69.92" height="69.92" rx="4" fill="none"/></g><text transform="translate(8.06 33.894)" fill="#004ab7" font-size="12" font-family="SegoeUI, Segoe UI"><tspan x="16.894" y="13">checkFirst</tspan><tspan x="20.257" y="27">Startup()</tspan></text></g><g transform="translate(208.609 731.106) rotate(90)"><path d="M0,0V16.454c0,3.156,13.431,5.714,30,5.714H150" fill="none" stroke="#000" stroke-miterlimit="10" stroke-width="2"/><path d="M0,0V16L10,8Z" transform="translate(142 14.169)"/></g><g transform="translate(166.44 788.106)"><g fill="#fff" stroke="#bfe3e1" stroke-miterlimit="10" stroke-width="2"><circle cx="20" cy="20" r="20" stroke="none"/><circle cx="20" cy="20" r="19" fill="none"/></g><path d="M5.4,9.836,1.372,5.959,0,7.27l5.4,5.2L17,1.311,15.637,0Z" transform="translate(12 14)" fill="#bfe3e1"/></g><g transform="translate(342.44 731.106) rotate(90)"><path d="M0,22.169V5.714C0,2.558,13.431,0,30,0H150" transform="translate(0 8)" fill="none" stroke="#000" stroke-miterlimit="10" stroke-width="2"/><path d="M0,16V0L10,8Z" transform="translate(142)"/></g><g transform="translate(313.44 790.106)"><g fill="#fff" stroke="#fbbebb" stroke-miterlimit="10" stroke-width="2"><circle cx="20" cy="20" r="20" stroke="none"/><circle cx="20" cy="20" r="19" fill="none"/></g><g transform="translate(14 15)"><path d="M10.869,11.154,0,0" transform="translate(0.878 0.059)" fill="none" stroke="#fbbebb" stroke-linecap="square" stroke-miterlimit="10" stroke-width="2"/><path d="M10.869,0,0,11.154" transform="translate(0.77 0.105)" fill="none" stroke="#fbbebb" stroke-linecap="square" stroke-miterlimit="10" stroke-width="2"/></g></g><g transform="translate(135.44 884.106)"><g transform="translate(0 50.855) rotate(-45)" fill="#fff" stroke="#004ab7" stroke-miterlimit="10" stroke-width="2"><rect width="71.92" height="71.92" rx="5" stroke="none"/><rect x="1" y="1" width="69.92" height="69.92" rx="4" fill="none"/></g><text transform="translate(8.06 35.894)" fill="#004ab7" font-size="12" font-family="SegoeUI, Segoe UI"><tspan x="11.072" y="13">OnBorading</tspan><tspan x="25.284" y="27">Screen</tspan></text></g><g transform="translate(284.44 884.106)"><g transform="translate(0 50.855) rotate(-45)" fill="#fff" stroke="#004ab7" stroke-miterlimit="10" stroke-width="2"><rect width="71.92" height="71.92" rx="5" stroke="none"/><rect x="1" y="1" width="69.92" height="69.92" rx="4" fill="none"/></g><text transform="translate(8.06 39.894)" fill="#004ab7" font-size="12" font-family="SegoeUI, Segoe UI"><tspan x="21.813" y="13">Landing</tspan></text></g><g transform="translate(241.5 927)"><path d="M0,1H37" transform="translate(0 7)" fill="none" stroke="#000" stroke-miterlimit="10" stroke-width="2"/><path d="M0,16V0L10,8Z" transform="translate(29)"/></g><g transform="translate(434.44 884.106)"><g transform="translate(0 50.855) rotate(-45)" fill="#fff" stroke="#000" stroke-miterlimit="10" stroke-width="2"><rect width="71.92" height="71.92" rx="5" stroke="none"/><rect x="1" y="1" width="69.92" height="69.92" rx="4" fill="none"/></g><text transform="translate(8.06 41.894)" font-size="12" font-family="SegoeUI, Segoe UI"><tspan x="12.429" y="13">checkUser()</tspan></text></g><g transform="translate(390.5 927)"><path d="M0,1H37" transform="translate(0 7)" fill="none" stroke="#004ab7" stroke-miterlimit="10" stroke-width="2"/><path d="M0,16V0L10,8Z" transform="translate(29)" fill="#004ab7"/></g><g transform="translate(485.609 996.106)"><path d="M0,0V16.454c0,3.156,13.431,5.714,30,5.714H150" transform="translate(0 -8)" fill="none" stroke="#004ab7" stroke-miterlimit="10" stroke-width="2"/><path d="M0,0V16L10,8Z" transform="translate(142 6.169)" fill="#004ab7"/></g><g transform="translate(485.356 853.022)"><path d="M0,22.169V5.714C0,2.558,13.431,0,30,0H150" transform="translate(0 8)" fill="none" stroke="#004ab7" stroke-miterlimit="10" stroke-width="2"/><path d="M0,16V0L10,8Z" transform="translate(142)" fill="#004ab7"/></g><g transform="translate(540.44 841.106)"><g fill="#fff" stroke="#bfe3e1" stroke-miterlimit="10" stroke-width="2"><circle cx="20" cy="20" r="20" stroke="none"/><circle cx="20" cy="20" r="19" fill="none"/></g><path d="M5.4,9.836,1.372,5.959,0,7.27l5.4,5.2L17,1.311,15.637,0Z" transform="translate(12 14)" fill="#bfe3e1"/></g><g transform="translate(541.44 990.106)"><g fill="#fff" stroke="#fbbebb" stroke-miterlimit="10" stroke-width="2"><circle cx="20" cy="20" r="20" stroke="none"/><circle cx="20" cy="20" r="19" fill="none"/></g><g transform="translate(14 15)"><path d="M10.869,11.154,0,0" transform="translate(0.878 0.059)" fill="none" stroke="#fbbebb" stroke-linecap="square" stroke-miterlimit="10" stroke-width="2"/><path d="M10.869,0,0,11.154" transform="translate(0.77 0.105)" fill="none" stroke="#fbbebb" stroke-linecap="square" stroke-miterlimit="10" stroke-width="2"/></g></g><g transform="translate(644.44 959.106)"><g transform="translate(0 50.855) rotate(-45)" fill="#fff" stroke="#004ab7" stroke-miterlimit="10" stroke-width="2"><rect width="71.92" height="71.92" rx="5" stroke="none"/><rect x="1" y="1" width="69.92" height="69.92" rx="4" fill="none"/></g><text transform="translate(8.06 40.894)" fill="#004ab7" font-size="12" font-family="SegoeUI, Segoe UI"><tspan x="26.438" y="13">SignIn</tspan></text></g><g transform="translate(644.44 810.106)"><g transform="translate(0 50.855) rotate(-45)" fill="#fff" stroke="#004ab7" stroke-miterlimit="10" stroke-width="2"><rect width="71.92" height="71.92" rx="5" stroke="none"/><rect x="1" y="1" width="69.92" height="69.92" rx="4" fill="none"/></g><text transform="translate(8.06 40.894)" fill="#004ab7" font-size="12" font-family="SegoeUI, Segoe UI"><tspan x="26.919" y="13">Home</tspan></text></g><g transform="translate(687 954.5) rotate(-90)"><path d="M0,1H37" transform="translate(0 7)" fill="none" stroke="#004ab7" stroke-miterlimit="10" stroke-width="2"/><path d="M0,16V0L10,8Z" transform="translate(29)" fill="#004ab7"/></g><g transform="translate(751.232 523)"><path d="M0,330.177H78.6c7.549,0,13.669-19.71,13.669-44.024V44.024C92.268,19.71,98.388,0,105.938,0H180.8" transform="translate(0 7.823)" fill="none" stroke="#004ab7" stroke-miterlimit="10" stroke-width="2"/><path d="M0,16V0L12,8Z" transform="translate(176.268)" fill="#004ab7"/></g><g transform="translate(783.5 853)"><path d="M0,1H152" transform="translate(0 7)" fill="none" stroke="#004ab7" stroke-miterlimit="10" stroke-width="2"/><path d="M0,16V0L10,8Z" transform="translate(144)" fill="#004ab7"/></g><g transform="translate(843.5 128)"><path d="M0,465.544V120C0,53.726,8.6,0,19.2,0H96" transform="translate(0 0)" fill="none" stroke="#004ab7" stroke-miterlimit="10" stroke-width="2"/><path d="M0,16V0L10,8Z" transform="translate(88 -8)" fill="#004ab7"/></g><g transform="translate(946.44 77.106)"><g transform="translate(0 50.855) rotate(-45)" fill="#fff" stroke="#004ab7" stroke-miterlimit="10" stroke-width="2"><rect width="71.92" height="71.92" rx="5" stroke="none"/><rect x="1" y="1" width="69.92" height="69.92" rx="4" fill="none"/></g><text transform="translate(8.06 40.894)" fill="#004ab7" font-size="12" font-family="SegoeUI, Segoe UI"><tspan x="14.04" y="13">HomePage</tspan></text></g><g transform="translate(946.44 480.106)"><g transform="translate(0 50.855) rotate(-45)" fill="#fff" stroke="#004ab7" stroke-miterlimit="10" stroke-width="2"><rect width="71.92" height="71.92" rx="5" stroke="none"/><rect x="1" y="1" width="69.92" height="69.92" rx="4" fill="none"/></g><text transform="translate(8.06 40.894)" fill="#004ab7" font-size="12" font-family="SegoeUI, Segoe UI"><tspan x="32.113" y="13">Cart</tspan></text></g><g transform="translate(944.44 810.106)"><g transform="translate(0 50.855) rotate(-45)" fill="#fff" stroke="#004ab7" stroke-miterlimit="10" stroke-width="2"><rect width="71.92" height="71.92" rx="5" stroke="none"/><rect x="1" y="1" width="69.92" height="69.92" rx="4" fill="none"/></g><text transform="translate(8.06 40.894)" fill="#004ab7" font-size="12" font-family="SegoeUI, Segoe UI"><tspan x="21.681" y="13">Settings</tspan></text></g><g transform="translate(688 807.5) rotate(-90)"><path d="M0,1H115" transform="translate(0 7)" fill="none" stroke="#004ab7" stroke-miterlimit="10" stroke-width="2"/><path d="M0,16V0L10,8Z" transform="translate(107)" fill="#004ab7"/></g><g transform="translate(644.44 585.106)"><g transform="translate(0 50.855) rotate(-45)" fill="#fff" stroke="#004ab7" stroke-miterlimit="10" stroke-width="2"><rect width="71.92" height="71.92" rx="5" stroke="none"/><rect x="1" y="1" width="69.92" height="69.92" rx="4" fill="none"/></g><text transform="translate(8.06 40.894)" fill="#004ab7" font-size="12" font-family="SegoeUI, Segoe UI"><tspan x="25.369" y="13">Search</tspan></text></g><g transform="translate(687 582.5) rotate(-90)"><path d="M0,1H43" transform="translate(0 7)" fill="none" stroke="#004ab7" stroke-miterlimit="10" stroke-width="2"/><path d="M0,16V0L10,8Z" transform="translate(35)" fill="#004ab7"/></g><g transform="translate(644.44 432.106)"><g transform="translate(0 50.855) rotate(-45)" fill="#fff" stroke="#004ab7" stroke-miterlimit="10" stroke-width="2"><rect width="71.92" height="71.92" rx="5" stroke="none"/><rect x="1" y="1" width="69.92" height="69.92" rx="4" fill="none"/></g><text transform="translate(8.06 35.894)" fill="#004ab7" font-size="12" font-family="SegoeUI, Segoe UI"><tspan x="22.305" y="13">Product</tspan><tspan x="25.117" y="27">Details</tspan></text></g><g transform="translate(997.356 46.021)"><path d="M0,22.169V5.714C0,2.558,13.431,0,30,0H150" transform="translate(0 8)" fill="none" stroke="#000" stroke-miterlimit="10" stroke-width="2"/><path d="M0,16V0L10,8Z" transform="translate(142)"/></g><g transform="translate(997.609 188.106)"><path d="M0,0V16.454c0,3.156,13.431,5.714,30,5.714H150" transform="translate(0 -8)" fill="none" stroke="#000" stroke-miterlimit="10" stroke-width="2"/><path d="M0,0V16L10,8Z" transform="translate(142 6.169)"/></g><g transform="translate(1152.44 3.106)"><g transform="translate(0 50.855) rotate(-45)" fill="#fff" stroke="#004ab7" stroke-miterlimit="10" stroke-width="2"><rect width="71.92" height="71.92" rx="5" stroke="none"/><rect x="1" y="1" width="69.92" height="69.92" rx="4" fill="none"/></g><text transform="translate(8.06 35.894)" fill="#004ab7" font-size="12" font-family="SegoeUI, Segoe UI"><tspan x="19.759" y="13">Products</tspan><tspan x="24.64" y="27">Reader</tspan></text></g><g transform="translate(1152.44 151.106)"><g transform="translate(0 50.855) rotate(-45)" fill="#fff" stroke="#004ab7" stroke-miterlimit="10" stroke-width="2"><rect width="71.92" height="71.92" rx="5" stroke="none"/><rect x="1" y="1" width="69.92" height="69.92" rx="4" fill="none"/></g><text transform="translate(8.06 35.894)" fill="#004ab7" font-size="12" font-family="SegoeUI, Segoe UI"><tspan x="19.759" y="13">Products</tspan><tspan x="25.117" y="27">Details</tspan></text></g><g transform="translate(1052.5 523)"><path d="M0,1H93" transform="translate(0 7)" fill="none" stroke="#000" stroke-miterlimit="10" stroke-width="2"/><path d="M0,16V0L10,8Z" transform="translate(85)"/></g><g transform="translate(1152.44 480.106)"><g transform="translate(0 50.855) rotate(-45)" fill="#fff" stroke="#004ab7" stroke-miterlimit="10" stroke-width="2"><rect width="71.92" height="71.92" rx="5" stroke="none"/><rect x="1" y="1" width="69.92" height="69.92" rx="4" fill="none"/></g><text transform="translate(8.06 41.894)" fill="#004ab7" font-size="12" font-family="SegoeUI, Segoe UI"><tspan x="18.054" y="13">Checkout</tspan></text></g><g transform="translate(1305.44 480.106)"><g transform="translate(0 50.855) rotate(-45)" fill="#fff" stroke="#004ab7" stroke-miterlimit="10" stroke-width="2"><rect width="71.92" height="71.92" rx="5" stroke="none"/><rect x="1" y="1" width="69.92" height="69.92" rx="4" fill="none"/></g><text transform="translate(7.06 41.894)" fill="#004ab7" font-size="12" font-family="SegoeUI, Segoe UI"><tspan x="16.064" y="13">Addresses</tspan></text></g><g transform="translate(1258.5 523)"><path d="M0,1H37" transform="translate(0 7)" fill="none" stroke="#004ab7" stroke-miterlimit="10" stroke-width="2"/><path d="M0,16V0L10,8Z" transform="translate(29)" fill="#004ab7"/></g><g transform="translate(1461.44 480.106)"><g transform="translate(0 50.855) rotate(-45)" fill="#fff" stroke="#004ab7" stroke-miterlimit="10" stroke-width="2"><rect width="71.92" height="71.92" rx="5" stroke="none"/><rect x="1" y="1" width="69.92" height="69.92" rx="4" fill="none"/></g><text transform="translate(8.06 33.894)" fill="#004ab7" font-size="12" font-family="SegoeUI, Segoe UI"><tspan x="19.527" y="13">Shipping</tspan><tspan x="19.451" y="27">Methods</tspan></text></g><g transform="translate(1414.5 523)"><path d="M0,1H37" transform="translate(0 7)" fill="none" stroke="#004ab7" stroke-miterlimit="10" stroke-width="2"/><path d="M0,16V0L10,8Z" transform="translate(29)" fill="#004ab7"/></g><g transform="translate(1614.44 480.106)"><g transform="translate(0 50.855) rotate(-45)" fill="#fff" stroke="#004ab7" stroke-miterlimit="10" stroke-width="2"><rect width="71.92" height="71.92" rx="5" stroke="none"/><rect x="1" y="1" width="69.92" height="69.92" rx="4" fill="none"/></g><text transform="translate(8.06 39.894)" fill="#004ab7" font-size="12" font-family="SegoeUI, Segoe UI"><tspan x="18.039" y="13">Summary</tspan></text></g><g transform="translate(1567.5 523)"><path d="M0,1H37" transform="translate(0 7)" fill="none" stroke="#004ab7" stroke-miterlimit="10" stroke-width="2"/><path d="M0,16V0L10,8Z" transform="translate(29)" fill="#004ab7"/></g><g transform="translate(998.356 303.021)"><path d="M0,165.16V42.572C0,19.06,13.431,0,30,0H150" transform="translate(0 8.009)" fill="none" stroke="#000" stroke-miterlimit="10" stroke-width="2"/><path d="M0,16V0L10,8Z" transform="translate(142)"/></g><g transform="translate(998.356 410.021)"><path d="M0,58.258V15.017C0,6.723,13.431,0,30,0H150" transform="translate(0 7.911)" fill="none" stroke="#000" stroke-miterlimit="10" stroke-width="2"/><path d="M0,16V0L10,8Z" transform="translate(142)"/></g><g transform="translate(1152.44 260.106)"><g transform="translate(0 50.855) rotate(-45)" fill="#fff" stroke="#004ab7" stroke-miterlimit="10" stroke-width="2"><rect width="71.92" height="71.92" rx="5" stroke="none"/><rect x="1" y="1" width="69.92" height="69.92" rx="4" fill="none"/></g><text transform="translate(8.06 34.894)" fill="#004ab7" font-size="12" font-family="SegoeUI, Segoe UI"><tspan x="32.945" y="13">Edit </tspan><tspan x="31.064" y="27">Item</tspan></text></g><g transform="translate(1152.44 367.106)"><g transform="translate(0 50.855) rotate(-45)" fill="#fff" stroke="#004ab7" stroke-miterlimit="10" stroke-width="2"><rect width="71.92" height="71.92" rx="5" stroke="none"/><rect x="1" y="1" width="69.92" height="69.92" rx="4" fill="none"/></g><text transform="translate(8.06 37.894)" fill="#004ab7" font-size="12" font-family="SegoeUI, Segoe UI"><tspan x="21.754" y="13">Remove</tspan><tspan x="31.064" y="27">Item</tspan></text></g><g transform="translate(997.609 584.306)"><path d="M0,0V43.047C0,51.3,13.431,58,30,58H150" fill="none" stroke="#000" stroke-miterlimit="10" stroke-width="2"/><path d="M0,0V16L10,8Z" transform="translate(142 49.969)"/></g><g transform="translate(1152.44 592.106)"><g transform="translate(0 50.855) rotate(-45)" fill="#fff" stroke="#004ab7" stroke-miterlimit="10" stroke-width="2"><rect width="71.92" height="71.92" rx="5" stroke="none"/><rect x="1" y="1" width="69.92" height="69.92" rx="4" fill="none"/></g><text transform="translate(8.06 37.894)" fill="#004ab7" font-size="12" font-family="SegoeUI, Segoe UI"><tspan x="22.305" y="13">Product</tspan><tspan x="25.117" y="27">Details</tspan></text></g><g transform="translate(1211 109.5) rotate(90)"><path d="M0,1H37" transform="translate(0 7)" fill="none" stroke="#000" stroke-miterlimit="10" stroke-width="2"/><path d="M0,16V0L10,8Z" transform="translate(29)"/></g><g transform="translate(995.356 740.021)"><path d="M0,61.713V15.907C0,7.122,13.431,0,30,0H150" transform="translate(0 8.455)" fill="none" stroke="#000" stroke-miterlimit="10" stroke-width="2"/><path d="M0,16V0L10,8Z" transform="translate(142)"/></g><g transform="translate(1152.44 697.106)"><g transform="translate(0 50.855) rotate(-45)" fill="#fff" stroke="#004ab7" stroke-miterlimit="10" stroke-width="2"><rect width="71.92" height="71.92" rx="5" stroke="none"/><rect x="1" y="1" width="69.92" height="69.92" rx="4" fill="none"/></g><text transform="translate(7.06 35.894)" fill="#004ab7" font-size="12" font-family="SegoeUI, Segoe UI"><tspan x="23.796" y="13">Upload</tspan><tspan x="26.512" y="27">Image</tspan></text></g><g transform="translate(1050.5 853)"><path d="M0,1H95" transform="translate(0 7)" stroke="#000" stroke-miterlimit="10" stroke-width="2"/><path d="M0,16V0L10,8Z" transform="translate(87)"/></g><g transform="translate(1154.44 810.106)"><g transform="translate(0 50.855) rotate(-45)" fill="#fff" stroke="#004ab7" stroke-miterlimit="10" stroke-width="2"><rect width="71.92" height="71.92" rx="5" stroke="none"/><rect x="1" y="1" width="69.92" height="69.92" rx="4" fill="none"/></g><text transform="translate(8.06 35.894)" fill="#004ab7" font-size="12" font-family="SegoeUI, Segoe UI"><tspan x="32.945" y="13">Edit</tspan><tspan x="8.646" y="27">Personal Info</tspan></text></g><g transform="translate(1256.5 853)"><path d="M0,1H34" transform="translate(0 7)" fill="none" stroke="#000" stroke-miterlimit="10" stroke-width="2"/><path d="M0,16V0L10,8Z" transform="translate(26)"/></g><g transform="translate(1297.44 810.106)"><g transform="translate(0 50.855) rotate(-45)" fill="#fff" stroke="#004ab7" stroke-miterlimit="10" stroke-width="2"><rect width="71.92" height="71.92" rx="5" stroke="none"/><rect x="1" y="1" width="69.92" height="69.92" rx="4" fill="none"/></g><text transform="translate(8.06 35.894)" fill="#004ab7" font-size="12" font-family="SegoeUI, Segoe UI"><tspan x="22.771" y="13">Change</tspan><tspan x="18.229" y="27">Password</tspan></text></g><g transform="translate(995.609 913.906)"><path d="M0,0V39.564C0,47.152,13.431,53.3,30,53.3H150" fill="none" stroke="#000" stroke-miterlimit="10" stroke-width="2"/><path d="M0,0V16L10,8Z" transform="translate(142 45.369)"/></g><g transform="translate(1154.44 917.106)"><g transform="translate(0 50.855) rotate(-45)" fill="#fff" stroke="#004ab7" stroke-miterlimit="10" stroke-width="2"><rect width="71.92" height="71.92" rx="5" stroke="none"/><rect x="1" y="1" width="69.92" height="69.92" rx="4" fill="none"/></g><text transform="translate(8.06 40.894)" fill="#004ab7" font-size="12" font-family="SegoeUI, Segoe UI"><tspan x="16.064" y="13">Addresses</tspan></text></g><g transform="translate(995.609 944.906)"><path d="M0,0V97.673c0,18.733,13.431,33.92,30,33.92H150" fill="none" stroke="#000" stroke-miterlimit="10" stroke-width="2"/><path d="M0,0V16L10,8Z" transform="translate(142 123.369)"/></g><g transform="translate(1154.44 1024.106)"><g transform="translate(0 50.855) rotate(-45)" fill="#fff" stroke="#004ab7" stroke-miterlimit="10" stroke-width="2"><rect width="71.92" height="71.92" rx="5" stroke="none"/><rect x="1" y="1" width="69.92" height="69.92" rx="4" fill="none"/></g><text transform="translate(8.06 42.894)" fill="#004ab7" font-size="12" font-family="SegoeUI, Segoe UI"><tspan x="25.088" y="13">Orders</tspan></text></g><g transform="translate(1256.5 960)"><path d="M0,1H34" transform="translate(0 7)" stroke="#000" stroke-miterlimit="10" stroke-width="2"/><path d="M0,16V0L10,8Z" transform="translate(26)"/></g><g transform="translate(1297.44 917.106)"><g transform="translate(0 50.855) rotate(-45)" fill="#fff" stroke="#004ab7" stroke-miterlimit="10" stroke-width="2"><rect width="71.92" height="71.92" rx="5" stroke="none"/><rect x="1" y="1" width="69.92" height="69.92" rx="4" fill="none"/></g><text transform="translate(8.06 33.894)" fill="#004ab7" font-size="12" font-family="SegoeUI, Segoe UI"><tspan x="32.063" y="13">Add</tspan><tspan x="21.748" y="27">Address</tspan></text></g><g transform="translate(1356.356 408.021)"><path d="M0,61.713V15.907C0,7.122,8.571,0,19.145,0H95.724" transform="translate(0 8.455)" fill="none" stroke="#000" stroke-miterlimit="10" stroke-width="2"/><path d="M0,16V0L10,8Z" transform="translate(87)"/></g><g transform="translate(1461.44 366.106)"><g transform="translate(0 50.855) rotate(-45)" fill="#fff" stroke="#004ab7" stroke-miterlimit="10" stroke-width="2"><rect width="71.92" height="71.92" rx="5" stroke="none"/><rect x="1" y="1" width="69.92" height="69.92" rx="4" fill="none"/></g><text transform="translate(8.06 32.894)" fill="#004ab7" font-size="12" font-family="SegoeUI, Segoe UI"><tspan x="19.671" y="13">Add/Edit</tspan><tspan x="21.748" y="27">Address</tspan></text></g><g transform="translate(185 20)" stroke="#707070" stroke-width="1"><circle cx="10" cy="10" r="10" stroke="none"/><circle cx="10" cy="10" r="9.5" fill="none"/></g><text transform="translate(294 34)" font-size="12" font-family="Arial-BoldMT, Arial" font-weight="700"><tspan x="-83.344" y="0">Navigator, showBottomSheet</tspan></text><circle cx="10" cy="10" r="10" transform="translate(185 49)" fill="#004ab7"/><text transform="translate(226 63)" fill="#004ab7" font-size="12" font-family="Arial-BoldMT, Arial" font-weight="700"><tspan x="-14.997" y="0">Child</tspan></text><g transform="translate(185.441 78)"><g transform="translate(0 10) rotate(-45)" fill="#fff" stroke="#004ab7" stroke-miterlimit="10" stroke-width="2"><rect width="14.926" height="14.926" rx="5" stroke="none"/><rect x="1" y="1" width="12.926" height="12.926" rx="4" fill="none"/></g></g><text transform="translate(231 92)" fill="#004ab7" font-size="12" font-family="Arial-BoldMT, Arial" font-weight="700"><tspan x="-19.942" y="0">Widget</tspan></text><g transform="translate(184.441 107)"><g transform="translate(0 10) rotate(-45)" fill="#fff" stroke="#000" stroke-miterlimit="10" stroke-width="2"><rect width="14.926" height="14.926" rx="5" stroke="none"/><rect x="1" y="1" width="12.926" height="12.926" rx="4" fill="none"/></g></g><text transform="translate(236 121)" font-size="12" font-family="Arial-BoldMT, Arial" font-weight="700"><tspan x="-25.327" y="0">Function</tspan></text><g transform="translate(1773.44 480.106)"><g transform="translate(0 50.855) rotate(-45)" fill="#fff" stroke="#004ab7" stroke-miterlimit="10" stroke-width="2"><rect width="71.92" height="71.92" rx="5" stroke="none"/><rect x="1" y="1" width="69.92" height="69.92" rx="4" fill="none"/></g><text transform="translate(8.06 39.894)" fill="#004ab7" font-size="12" font-family="SegoeUI, Segoe UI"><tspan x="20.154" y="13">Payment</tspan></text></g><g transform="translate(1726.5 523)"><path d="M0,1H37" transform="translate(0 7)" fill="none" stroke="#004ab7" stroke-miterlimit="10" stroke-width="2"/><path d="M0,16V0L10,8Z" transform="translate(29)" fill="#004ab7"/></g></g></svg>